<svg xmlns="http://www.w3.org/2000/svg" version="1.1" xmlns:xlink="http://www.w3.org/1999/xlink" xmlns:svgjs="http://svgjs.dev/svgjs" width="1000" height="623" viewBox="0 0 1000 623"><g transform="matrix(1,0,0,1,-0.6060606060606233,115.38911082484765)"><svg viewBox="0 0 396 247" data-background-color="#ffffff" preserveAspectRatio="xMidYMid meet" height="623" width="1000" xmlns="http://www.w3.org/2000/svg" xmlns:xlink="http://www.w3.org/1999/xlink"><g id="tight-bounds" transform="matrix(1,0,0,1,0.2400000000000091,-0.09999999999999432)"><svg viewBox="0 0 395.52 247.2" height="247.2" width="395.52"><g><svg></svg></g><g><svg viewBox="0 0 395.52 247.2" height="247.2" width="395.52"><g transform="matrix(1,0,0,1,75.54432,63.96591574007404)"><svg viewBox="0 0 244.43135999999998 119.26816851985191" height="119.26816851985191" width="244.43135999999998"><g><svg viewBox="0 0 245.65351679999995 119.86450936245116" height="119.26816851985191" width="244.43135999999998"><g><rect width="245.65351679999995" height="2.7324116675783" x="0" y="59.48752174868138" fill="#0c1dbc" opacity="1" stroke-width="0" stroke="transparent" fill-opacity="1" class="rect-o-0" data-fill-palette-color="primary" rx="1%" id="o-0" data-palette-color="#0c1dbc"></rect></g><g transform="matrix(1,0,0,1,0.6110783999999825,69.37284354081021)"><svg viewBox="0 0 244.43135999999998 50.49166582164095" height="50.49166582164095" width="244.43135999999998"><g id="textblocktransform"><svg viewBox="0 0 244.43135999999998 50.49166582164095" height="50.49166582164095" width="244.43135999999998" id="textblock"><g><svg viewBox="0 0 244.43135999999998 30.299183841434637" height="30.299183841434637" width="244.43135999999998"><g transform="matrix(1,0,0,1,0,0)"><svg width="244.43135999999998" viewBox="1 -37.900001525878906 329.57000732421875 39.400001525878906" height="30.299183841434637" data-palette-color="#0c1dbc"><g class="undefined-text-0" data-fill-palette-color="primary" id="text-0"><path d="M30.8-35.5L33.95-35.45 38.4-35.55Q39.35-35.55 39.35-34.85L39.35-34.85Q39.35-34.3 38.25-33.8L38.25-33.8Q37.8-33.6 37.2-32.95 36.6-32.3 36.15-31.25L36.15-31.25 25-5.85Q23.8-3.15 22.95-1.07 22.1 1 21.95 1.25 21.8 1.5 21.55 1.5L21.55 1.5Q20.65 1.5 19.33-1.85 18-5.2 15.13-11.45 12.25-17.7 10.7-21.2 9.15-24.7 8.47-26.35 7.8-28 7.2-29.3L7.2-29.3Q6.3-31.45 5.55-32.27 4.8-33.1 3.88-33.5 2.95-33.9 2.4-33.9L2.4-33.9Q1-33.8 1-34.8L1-34.8Q1-35.5 2.4-35.5L2.4-35.5 7.9-35.3 11.15-35.4Q12.3-35.4 12.55-35.3 12.8-35.2 12.8-34.88 12.8-34.55 12.3-34.3L12.3-34.3Q10.75-33.5 10.75-32.68 10.75-31.85 10.93-31.18 11.1-30.5 11.7-29.1 12.3-27.7 12.93-26.3 13.55-24.9 14.98-21.78 16.4-18.65 17.75-15.6L17.75-15.6Q21.95-5.95 22.75-5.95L22.75-5.95Q23-5.95 25.63-12 28.25-18.05 30.8-24.65 33.35-31.25 33.35-32.25 33.35-33.25 32.77-33.68 32.2-34.1 31.55-34.2L31.55-34.2Q29.75-34.4 29.75-35L29.75-35Q29.75-35.35 29.93-35.43 30.1-35.5 30.8-35.5L30.8-35.5ZM43.5-18.55L43.5-18.55 42.55-18.5Q41.7-18.5 41.7-19.2L41.7-19.2Q41.7-19.7 42.15-20.05L42.15-20.05Q44.05-21.3 45.95-23.8L45.95-23.8Q46.75-24.95 47.22-25.48 47.7-26 48.2-26 48.7-26 48.7-24.85L48.7-24.85Q48.7-24.85 48.5-22L48.5-22Q48.5-21.3 48.77-21.15 49.05-21 50.55-21L50.55-21 52.3-21Q54.55-21 55.05-21.25L55.05-21.25Q55.95-21.7 56.15-21.7L56.15-21.7Q56.65-21.7 56.65-21.15L56.65-21.15Q56.65-20.75 56-19.58 55.35-18.4 55.05-18.4L55.05-18.4Q52.8-18.4 51.9-18.5 51-18.6 50.7-18.63 50.4-18.65 50.17-18.68 49.95-18.7 49.85-18.7L49.85-18.7 49.75-18.75Q48.8-18.75 48.52-18.45 48.25-18.15 48.25-17.1L48.25-17.1 48.05-7.8Q48.05-4.55 48.87-3.28 49.7-2 52.35-2L52.35-2Q53.4-2 54.67-2.48 55.95-2.95 56.05-2.95L56.05-2.95Q56.55-2.95 56.55-2.3 56.55-1.65 54.82-0.58 53.1 0.5 51.1 0.5L51.1 0.5Q44.35 0.5 44.35-5.35L44.35-5.35 44.35-6.1 44.55-17.75Q44.55-18.25 44.35-18.4 44.15-18.55 43.5-18.55ZM69.95 0.95Q65.55 0.95 62.47-1.75 59.4-4.45 59.4-9.58 59.4-14.7 62.22-18.15 65.05-21.6 69.55-21.6L69.55-21.6Q71.65-21.6 73.37-20.85 75.1-20.1 76.05-19.03 77-17.95 77.65-16.75L77.65-16.75Q78.75-14.7 78.75-13.65L78.75-13.65Q78.75-12.75 76.7-12.75L76.7-12.75 63.85-12.75Q63.45-12.75 63.37-12.68 63.3-12.6 63.3-12.2L63.3-12.2Q63.3-7.5 65.82-4.8 68.35-2.1 71.75-2.1L71.75-2.1Q73.85-2.1 76.02-3.23 78.2-4.35 78.3-4.35L78.3-4.35Q78.8-4.35 78.8-3.9L78.8-3.9Q78.8-3.3 77.7-2.27 76.6-1.25 75.6-0.6L75.6-0.6Q73.2 0.95 69.95 0.95L69.95 0.95ZM64.25-13.95L64.25-13.95 73.05-14.25Q73.75-14.25 73.92-14.38 74.1-14.5 74.1-14.85L74.1-14.85Q74.1-16.35 72.7-18.35 71.3-20.35 68.8-20.35 66.3-20.35 64.95-18.38 63.6-16.4 63.6-14.65L63.6-14.65Q63.6-13.95 64.25-13.95ZM93.04 1.05Q88.34 1.05 85.52-1.8 82.69-4.65 82.69-9.53 82.69-14.4 85.92-17.93 89.14-21.45 94.29-21.45L94.29-21.45Q96.04-21.45 98.07-20.95 100.09-20.45 100.14-19.8L100.14-19.8Q100.24-18.6 100.24-16.93 100.24-15.25 99.69-15.25L99.69-15.25Q99.19-15.25 98.79-15.9L98.79-15.9Q97.94-17.35 95.57-18.43 93.19-19.5 91.39-19.5L91.39-19.5Q90.39-19.5 89.44-18.75 88.49-18 87.89-17.1L87.89-17.1Q86.44-15 86.44-11.15 86.44-7.3 88.92-4.42 91.39-1.55 94.99-1.55L94.99-1.55Q96.74-1.55 98.24-2.2 99.74-2.85 100.57-3.5 101.39-4.15 101.59-4.15L101.59-4.15Q102.14-4.15 102.14-3.65L102.14-3.65Q102.14-3.15 101.09-2.13 100.04-1.1 99.04-0.5L99.04-0.5Q96.59 1.05 93.04 1.05L93.04 1.05ZM109.94-0.25L109.94-0.25 106.39 0Q105.14 0 105.09-0.15 105.04-0.3 105.04-0.5L105.04-0.5Q105.04-1 105.64-1.15L105.64-1.15Q107.09-1.55 107.52-2.43 107.94-3.3 107.94-5L107.94-5 108.14-22.05 108.14-24.5Q108.14-31.3 107.84-32.8 107.54-34.3 106.04-34.3L106.04-34.3 105.39-34.3 105.19-34.35Q104.34-34.35 104.34-34.8 104.34-35.25 104.87-35.52 105.39-35.8 106.37-36.05 107.34-36.3 109.14-37.1 110.94-37.9 111.39-37.9L111.39-37.9Q112.04-37.9 112.04-36.75L112.04-36.75Q112.04-36.5 111.87-35.55 111.69-34.6 111.67-31.88 111.64-29.15 111.56-26.03 111.49-22.9 111.44-21.8L111.44-21.8Q111.34-19.7 111.34-18.85 111.34-18 111.74-18L111.74-18Q111.84-18 112.77-18.93 113.69-19.85 115.31-20.78 116.94-21.7 118.79-21.7L118.79-21.7Q122.84-21.7 125.09-19.3 127.34-16.9 127.34-11.85L127.34-11.85 127.34-4.6Q127.34-3.25 127.84-2.5 128.34-1.75 128.99-1.7L128.99-1.7Q131.69-1.45 131.69-0.65 131.69 0.15 130.14 0.15L130.14 0.15 125.94-0.1 122.09 0.05Q120.94 0.05 120.94-0.45L120.94-0.45Q120.94-1.35 122.29-1.35L122.29-1.35Q122.79-1.35 123.22-1.9 123.64-2.45 123.64-3.6L123.64-3.6 123.69-4.9 123.74-11.9Q123.74-14.95 121.89-17.18 120.04-19.4 117.62-19.4 115.19-19.4 112.69-17.45L112.69-17.45Q111.79-16.75 111.54-15.18 111.29-13.6 111.29-8.2L111.29-8.2 111.29-7.05Q111.29-4.8 111.64-3.4L111.64-3.4Q112.19-1.45 114.39-1.3L114.39-1.3Q115.09-1.25 115.47-1.13 115.84-1 115.84-0.6L115.84-0.6Q115.84 0 115.29 0L115.29 0 113.99-0.05Q112.69-0.1 111.37-0.18 110.04-0.25 109.94-0.25Z" fill="#0c1dbc" data-fill-palette-color="primary"></path><path d="M162.49-35.5L165.64-35.45 170.09-35.55Q171.04-35.55 171.04-34.85L171.04-34.85Q171.04-34.3 169.94-33.8L169.94-33.8Q169.49-33.6 168.89-32.95 168.29-32.3 167.84-31.25L167.84-31.25 156.69-5.85Q155.49-3.15 154.64-1.07 153.79 1 153.64 1.25 153.49 1.5 153.24 1.5L153.24 1.5Q152.34 1.5 151.02-1.85 149.69-5.2 146.82-11.45 143.94-17.7 142.39-21.2 140.84-24.7 140.16-26.35 139.49-28 138.89-29.3L138.89-29.3Q137.99-31.45 137.24-32.27 136.49-33.1 135.57-33.5 134.64-33.9 134.09-33.9L134.09-33.9Q132.69-33.8 132.69-34.8L132.69-34.8Q132.69-35.5 134.09-35.5L134.09-35.5 139.59-35.3 142.84-35.4Q143.99-35.4 144.24-35.3 144.49-35.2 144.49-34.88 144.49-34.55 143.99-34.3L143.99-34.3Q142.44-33.5 142.44-32.68 142.44-31.85 142.62-31.18 142.79-30.5 143.39-29.1 143.99-27.7 144.62-26.3 145.24-24.9 146.67-21.78 148.09-18.65 149.44-15.6L149.44-15.6Q153.64-5.95 154.44-5.95L154.44-5.95Q154.69-5.95 157.32-12 159.94-18.05 162.49-24.65 165.04-31.25 165.04-32.25 165.04-33.25 164.46-33.68 163.89-34.1 163.24-34.2L163.24-34.2Q161.44-34.4 161.44-35L161.44-35Q161.44-35.35 161.62-35.43 161.79-35.5 162.49-35.5L162.49-35.5ZM184.54 0.95Q180.14 0.95 177.06-1.75 173.99-4.45 173.99-9.58 173.99-14.7 176.81-18.15 179.64-21.6 184.14-21.6L184.14-21.6Q186.24-21.6 187.96-20.85 189.69-20.1 190.64-19.03 191.59-17.95 192.24-16.75L192.24-16.75Q193.34-14.7 193.34-13.65L193.34-13.65Q193.34-12.75 191.29-12.75L191.29-12.75 178.44-12.75Q178.04-12.75 177.96-12.68 177.89-12.6 177.89-12.2L177.89-12.2Q177.89-7.5 180.41-4.8 182.94-2.1 186.34-2.1L186.34-2.1Q188.44-2.1 190.61-3.23 192.79-4.35 192.89-4.35L192.89-4.35Q193.39-4.35 193.39-3.9L193.39-3.9Q193.39-3.3 192.29-2.27 191.19-1.25 190.19-0.6L190.19-0.6Q187.79 0.95 184.54 0.95L184.54 0.95ZM178.84-13.95L178.84-13.95 187.64-14.25Q188.34-14.25 188.51-14.38 188.69-14.5 188.69-14.85L188.69-14.85Q188.69-16.35 187.29-18.35 185.89-20.35 183.39-20.35 180.89-20.35 179.54-18.38 178.19-16.4 178.19-14.65L178.19-14.65Q178.19-13.95 178.84-13.95ZM207.74 0L207.74 0 204.09-0.2Q202.79-0.2 200.64-0.1L200.64-0.1 198.49 0Q197.74 0 197.74-0.45 197.74-0.9 197.99-1 198.24-1.1 198.61-1.15 198.99-1.2 199.34-1.45L199.34-1.45Q200.29-2.05 200.39-5.08 200.49-8.1 200.49-9.05L200.49-9.05 200.49-16.25Q200.49-17.85 199.91-18.4 199.34-18.95 198.34-18.95L198.34-18.95 197.84-18.95Q196.89-18.95 196.89-19.5L196.89-19.5Q196.89-20 197.96-20.15 199.04-20.3 199.66-20.48 200.29-20.65 201.31-21.08 202.34-21.5 202.96-21.8 203.59-22.1 203.79-22.1L203.79-22.1 203.89-22.1Q204.34-22.1 204.34-21.5L204.34-21.5 204.24-19.35Q204.24-18.05 204.44-18.05 204.64-18.05 204.84-18.3L204.84-18.3Q205.59-19.35 206.84-20.1L206.84-20.1Q209.09-21.5 211.14-21.5 213.19-21.5 214.79-20.88 216.39-20.25 217.29-19.33 218.19-18.4 218.79-17.2L218.79-17.2Q219.79-15.2 219.79-13.1L219.79-13.1 219.79-12.6 219.84-9.95 219.84-4.85Q219.84-2.95 220.36-2.23 220.89-1.5 222.89-1.2L222.89-1.2Q223.89-1.05 223.89-0.45L223.89-0.45Q223.89 0.05 222.89 0.05L222.89 0.05 218.79-0.2 214.94 0Q213.94 0 213.94-0.65L213.94-0.65Q213.94-1.1 214.54-1.25L214.54-1.25 215.19-1.4Q216.29-1.75 216.29-4.75L216.29-4.75 216.29-11.5Q216.29-15.35 214.39-17.32 212.49-19.3 210.09-19.3 207.69-19.3 206.09-18.15 204.49-17 204.14-16 203.79-15 203.79-8.35L203.79-8.35 203.79-6.45Q203.79-3.95 204.31-2.75 204.84-1.55 206.64-1.4L206.64-1.4Q207.14-1.4 207.91-1.23 208.69-1.05 208.69-0.65L208.69-0.65Q208.69 0 207.74 0ZM228.03-18.55L228.03-18.55 227.08-18.5Q226.23-18.5 226.23-19.2L226.23-19.2Q226.23-19.7 226.68-20.05L226.68-20.05Q228.58-21.3 230.48-23.8L230.48-23.8Q231.28-24.95 231.76-25.48 232.23-26 232.73-26 233.23-26 233.23-24.85L233.23-24.85Q233.23-24.85 233.03-22L233.03-22Q233.03-21.3 233.31-21.15 233.58-21 235.08-21L235.08-21 236.83-21Q239.08-21 239.58-21.25L239.58-21.25Q240.48-21.7 240.68-21.7L240.68-21.7Q241.18-21.7 241.18-21.15L241.18-21.15Q241.18-20.75 240.53-19.58 239.88-18.4 239.58-18.4L239.58-18.4Q237.33-18.4 236.43-18.5 235.53-18.6 235.23-18.63 234.93-18.65 234.71-18.68 234.48-18.7 234.38-18.7L234.38-18.7 234.28-18.75Q233.33-18.75 233.06-18.45 232.78-18.15 232.78-17.1L232.78-17.1 232.58-7.8Q232.58-4.55 233.41-3.28 234.23-2 236.88-2L236.88-2Q237.93-2 239.21-2.48 240.48-2.95 240.58-2.95L240.58-2.95Q241.08-2.95 241.08-2.3 241.08-1.65 239.36-0.58 237.63 0.5 235.63 0.5L235.63 0.5Q228.88 0.5 228.88-5.35L228.88-5.35 228.88-6.1 229.08-17.75Q229.08-18.25 228.88-18.4 228.68-18.55 228.03-18.55ZM246.68-7.8L246.68-7.8 246.73-16.8Q246.73-17.8 246.21-18.4 245.68-19 245.23-19L245.23-19 244.33-19Q243.43-19 243.43-19.7 243.43-20.4 244.41-20.6 245.38-20.8 246.78-20.8L246.78-20.8 249.63-21.05Q250.48-21.05 250.63-20.7 250.78-20.35 250.78-18.95 250.78-17.55 250.66-15.13 250.53-12.7 250.53-9.75L250.53-9.75Q250.53-5.35 252.23-3.53 253.93-1.7 256.08-1.7L256.08-1.7Q259.28-1.7 260.73-3.05 262.18-4.4 262.18-7.8L262.18-7.8 262.08-14.7Q262.08-17.2 261.68-18.07 261.28-18.95 259.98-19.07 258.68-19.2 258.68-19.75L258.68-19.75Q258.68-20.9 263.08-20.9L263.08-20.9 264.88-21.15Q265.63-21.15 265.86-20.9 266.08-20.65 266.08-20.18 266.08-19.7 266.06-18.98 266.03-18.25 266.01-17.05 265.98-15.85 265.93-14.35L265.93-14.35Q265.83-11.35 265.83-7.65 265.83-3.95 266.13-2.85 266.43-1.75 267.23-1.75L267.23-1.75 268.53-1.8Q269.73-1.8 269.73-1.2 269.73-0.6 269.38-0.45 269.03-0.3 268.03-0.3 267.03-0.3 265.01-0.03 262.98 0.25 262.83 0.25L262.83 0.25Q262.48 0.25 262.26-1.03 262.03-2.3 261.96-2.3 261.88-2.3 260.98-1.5 260.08-0.7 258.41 0.1 256.73 0.9 254.73 0.9L254.73 0.9Q246.68 0.9 246.68-7.8ZM273.38-18.15L273.38-18.15 272.83-18.2Q271.88-18.2 271.88-19L271.88-19Q271.88-19.55 272.55-19.83 273.23-20.1 275.05-20.68 276.88-21.25 277.93-21.73 278.98-22.2 279.18-22.2L279.18-22.2Q279.83-22.2 279.83-21.2L279.83-21.2 279.78-19.85Q279.78-18.05 279.9-17.88 280.03-17.7 280.15-17.7 280.28-17.7 280.93-18.7 281.58-19.7 282.78-20.73 283.98-21.75 285.15-21.75 286.33-21.75 287.58-20.93 288.83-20.1 288.83-19.28 288.83-18.45 288.43-17.75L288.43-17.75Q287.73-16.55 287.13-16.55L287.13-16.55Q286.73-16.55 285.7-17.15 284.68-17.75 283.33-17.75 281.98-17.75 280.8-16.65 279.63-15.55 279.63-14.65L279.63-14.65 279.63-9.45 279.68-5.1 279.73-4.2Q279.73-3.15 280.43-2.4 281.13-1.65 281.75-1.55 282.38-1.45 282.83-1.4 283.28-1.35 283.53-1.33 283.78-1.3 284.08-1.2L284.08-1.2Q284.63-1.1 284.63-0.48 284.63 0.15 284.03 0.15L284.03 0.15 279.78-0.1 274.58 0.15Q273.68 0.15 273.58-0.05 273.48-0.25 273.48-0.45L273.48-0.45Q273.48-1.1 274.13-1.3L274.13-1.3Q275.43-1.6 275.7-2.58 275.98-3.55 275.98-6.75L275.98-6.75 275.93-14.8 275.88-16.3Q275.88-16.85 275.73-17.2L275.73-17.2Q275.33-18.15 273.38-18.15ZM302.03 0.95Q297.63 0.95 294.55-1.75 291.48-4.45 291.48-9.58 291.48-14.7 294.3-18.15 297.13-21.6 301.63-21.6L301.63-21.6Q303.73-21.6 305.45-20.85 307.18-20.1 308.13-19.03 309.08-17.95 309.73-16.75L309.73-16.75Q310.83-14.7 310.83-13.65L310.83-13.65Q310.83-12.75 308.78-12.75L308.78-12.75 295.93-12.75Q295.53-12.75 295.45-12.68 295.38-12.6 295.38-12.2L295.38-12.2Q295.38-7.5 297.9-4.8 300.43-2.1 303.83-2.1L303.83-2.1Q305.93-2.1 308.1-3.23 310.28-4.35 310.38-4.35L310.38-4.35Q310.88-4.35 310.88-3.9L310.88-3.9Q310.88-3.3 309.78-2.27 308.68-1.25 307.68-0.6L307.68-0.6Q305.28 0.95 302.03 0.95L302.03 0.95ZM296.33-13.95L296.33-13.95 305.13-14.25Q305.83-14.25 306-14.38 306.18-14.5 306.18-14.85L306.18-14.85Q306.18-16.35 304.78-18.35 303.38-20.35 300.88-20.35 298.38-20.35 297.03-18.38 295.68-16.4 295.68-14.65L295.68-14.65Q295.68-13.95 296.33-13.95ZM329.22-20.05L329.22-20.05 329.42-17.05Q329.42-16.2 329.22-15.9 329.02-15.6 328.65-15.6 328.27-15.6 327.85-16.32 327.42-17.05 326.9-17.9 326.37-18.75 325.2-19.48 324.02-20.2 322.52-20.2 321.02-20.2 320.07-19.48 319.12-18.75 319.12-17.9 319.12-17.05 319.27-16.53 319.42-16 319.8-15.6 320.17-15.2 320.45-14.93 320.72-14.65 321.37-14.35 322.02-14.05 322.35-13.93 322.67-13.8 323.42-13.5L323.42-13.5Q327.97-11.9 329.27-10.38 330.57-8.85 330.57-6 330.57-3.15 327.92-0.75L327.92-0.75Q326.12 0.8 322.97 0.8L322.97 0.8Q320.82 0.8 318.17-0.25L318.17-0.25Q317.42-0.55 317.3-0.58 317.17-0.6 316.9-0.7 316.62-0.8 316.5-0.83 316.37-0.85 316.17-0.95 315.97-1.05 315.9-1.13 315.82-1.2 315.72-1.35L315.72-1.35Q315.57-1.6 315.57-2.15L315.57-2.15 315.57-6.5Q315.57-7.05 315.8-7.43 316.02-7.8 316.42-7.8 316.82-7.8 317-7.58 317.17-7.35 317.32-6.65 317.47-5.95 317.62-5.65L317.62-5.65Q319.47-1.05 322.82-1.05L322.82-1.05Q324.37-1.05 325.77-1.88 327.17-2.7 327.17-4.48 327.17-6.25 326.02-7.35 324.87-8.45 323.22-9.08 321.57-9.7 319.92-10.38 318.27-11.05 317.12-12.38 315.97-13.7 315.97-15.7L315.97-15.7Q315.97-18.5 318.22-20.2 320.47-21.9 323.17-21.9 325.87-21.9 327.27-21.48 328.67-21.05 328.95-20.7 329.22-20.35 329.22-20.05Z" fill="#0080ff" data-fill-palette-color="secondary"></path></g></svg></g></svg></g><g transform="matrix(1,0,0,1,46.68638975999998,37.45209396598516)"><svg viewBox="0 0 151.05858048000002 13.039571855655788" height="13.039571855655788" width="151.05858048000002"><g transform="matrix(1,0,0,1,0,0)"><svg width="151.05858048000002" viewBox="8.114999771118164 -36.45000076293945 559.4650268554688 48.30000305175781" height="13.039571855655788" data-palette-color="#0080ff"><path d="M11.55-36.45L11.55-36.45Q12.85-36.45 13.53-35.63 14.2-34.8 14.2-33.5L14.2-33.5Q14.2-32.4 13.48-30.28 12.75-28.15 11.7-25.55 10.65-22.95 9.65-20.35L9.65-20.35 8.35-20.35 8.2-24.15Q8.15-25.35 8.13-27.03 8.1-28.7 8.13-30.33 8.15-31.95 8.25-32.95L8.25-32.95Q8.45-34.8 9.33-35.63 10.2-36.45 11.55-36.45ZM20.95-36.45L20.95-36.45Q22.25-36.45 22.93-35.63 23.6-34.8 23.6-33.5L23.6-33.5Q23.6-32.4 22.88-30.28 22.15-28.15 21.1-25.55 20.05-22.95 19.05-20.35L19.05-20.35 17.75-20.35 17.6-24.15Q17.55-25.35 17.53-27.03 17.5-28.7 17.53-30.33 17.55-31.95 17.65-32.95L17.65-32.95Q17.85-34.8 18.73-35.63 19.6-36.45 20.95-36.45ZM35.95 0L23.25 0 23.45-1.05 24.15-1.3Q26.15-2.05 26.5-4L26.5-4 29.05-17.55Q29.55-20.2 30.07-23.23 30.6-26.25 31.1-29.05L31.1-29.05Q31.4-31.05 29.55-31.75L29.55-31.75 28.95-32 29.2-33.05 40.65-33.05Q45.65-33.05 49.07-31.28 52.5-29.5 54.25-26.35 56-23.2 56-19.15L56-19.15Q56-14.6 54.4-11.05 52.8-7.5 50.02-5.03 47.25-2.55 43.62-1.28 40 0 35.95 0L35.95 0ZM32.6-1.45L32.6-1.45 35.55-1.45Q39.85-1.45 42.87-3.88 45.9-6.3 47.5-10.4 49.1-14.5 49.1-19.55L49.1-19.55Q49.1-25.5 46.7-28.45 44.3-31.4 39.75-31.6L39.75-31.6 38.15-31.6 35.1-15.5Q34.45-12 33.8-8.5 33.15-5 32.6-1.45ZM67.09 0.7L67.09 0.7Q63.4 0.7 61.07-1.7 58.74-4.1 58.74-8.65L58.74-8.65Q58.74-11.8 59.84-14.7 60.95-17.6 62.87-19.88 64.8-22.15 67.39-23.45 70-24.75 73-24.75L73-24.75Q76.09-24.75 77.72-23.35 79.34-21.95 79.34-19.6L79.34-19.6Q79.34-16.75 75.57-13.98 71.8-11.2 64.64-9.65L64.64-9.65Q64.8-6.4 66.19-4.9 67.59-3.4 70.05-3.4L70.05-3.4Q72.25-3.4 74-4.55 75.75-5.7 76.94-7.25L76.94-7.25 77.69-6.7Q76.69-4.8 75.12-3.1 73.55-1.4 71.55-0.35 69.55 0.7 67.09 0.7ZM72.5-23.05L72.5-23.05Q71.34-23.05 70.05-22.08 68.75-21.1 67.57-19.43 66.39-17.75 65.59-15.58 64.8-13.4 64.64-10.95L64.64-10.95Q70.25-12.6 72.52-15.05 74.8-17.5 74.8-20.25L74.8-20.25Q74.8-21.7 74.14-22.38 73.5-23.05 72.5-23.05ZM86.64 0.7L86.64 0.7Q83.54 0.7 81.64-0.53 79.74-1.75 79.74-3.95L79.74-3.95Q79.74-5.15 80.54-6.03 81.34-6.9 82.64-6.9L82.64-6.9Q85.09-6.9 85.69-3.95L85.69-3.95 85.94-2.8Q86.14-1.7 86.57-1.13 86.99-0.55 88.04-0.55L88.04-0.55Q89.34-0.55 90.32-1.58 91.29-2.6 91.29-4.45L91.29-4.45Q91.29-5.8 90.47-7.05 89.64-8.3 87.59-9.85L87.59-9.85Q85.59-11.45 84.34-13.15 83.09-14.85 83.09-17.25L83.09-17.25Q83.09-19.3 84.17-21 85.24-22.7 87.24-23.73 89.24-24.75 91.99-24.75L91.99-24.75Q95.24-24.75 97.07-23.45 98.89-22.15 98.89-20.2L98.89-20.2Q98.89-19.1 98.22-18.4 97.54-17.7 96.29-17.7L96.29-17.7Q94.04-17.7 93.14-20.5L93.14-20.5 92.79-21.7Q92.54-22.65 92.14-23.03 91.74-23.4 91.04-23.4L91.04-23.4Q90.09-23.4 89.24-22.5 88.39-21.6 88.39-19.8L88.39-19.8Q88.39-18.05 89.42-16.63 90.44-15.2 92.54-13.6L92.54-13.6Q94.79-11.95 95.79-10.43 96.79-8.9 96.79-6.7L96.79-6.7Q96.79-3.65 94.14-1.48 91.49 0.7 86.64 0.7ZM108.89-27.7L108.89-27.7Q107.49-27.7 106.49-28.6 105.49-29.5 105.49-31.05L105.49-31.05Q105.49-32.7 106.69-33.8 107.89-34.9 109.39-34.9L109.39-34.9Q110.84-34.9 111.79-33.98 112.74-33.05 112.74-31.6L112.74-31.6Q112.74-30 111.56-28.85 110.39-27.7 108.89-27.7ZM104.29 0.7L104.29 0.7Q102.79 0.7 101.81-0.08 100.84-0.85 100.84-2.35L100.84-2.35Q100.84-3.2 101.04-4.4 101.24-5.6 101.49-6.85L101.49-6.85 103.84-18.15Q104.29-20.25 102.29-21L102.29-21 101.59-21.3 101.69-22.2 110.69-24.8 111.19-24.3 107.39-6.45Q107.19-5.6 107.09-4.98 106.99-4.35 106.99-3.8L106.99-3.8Q106.99-2.7 107.99-2.7L107.99-2.7Q109.19-2.7 111.14-4.6L111.14-4.6 111.79-3.95Q110.54-2.1 108.66-0.7 106.79 0.7 104.29 0.7ZM119.74 11.85L119.74 11.85Q115.64 11.85 113.21 10.55 110.79 9.25 110.79 6.7L110.79 6.7Q110.79 5.2 111.81 3.9 112.84 2.6 114.44 1.6 116.04 0.6 117.74 0L117.74 0Q116.19-0.5 115.31-1.3 114.44-2.1 114.44-3.25L114.44-3.25Q114.44-4.45 115.79-6 117.14-7.55 119.04-9.05L119.04-9.05Q117.64-10.05 116.91-11.5 116.19-12.95 116.19-14.65L116.19-14.65Q116.19-17.35 117.59-19.65 118.99-21.95 121.31-23.35 123.64-24.75 126.49-24.75L126.49-24.75Q130.24-24.75 132.49-22.8L132.49-22.8Q135.59-23.2 138.34-24.75L138.34-24.75 138.79-24.3 138.29-21.7 133.54-21.7Q134.59-20.15 134.59-18.1L134.59-18.1Q134.59-15 133.29-12.63 131.99-10.25 129.66-8.93 127.34-7.6 124.24-7.6L124.24-7.6Q121.89-7.6 120.09-8.45L120.09-8.45 119.29-7.2Q118.84-6.55 119.04-5.95 119.24-5.35 120.14-5.15L120.14-5.15 128.04-3.55Q132.19-2.7 133.86-1.38 135.54-0.05 135.54 2.3L135.54 2.3Q135.54 5.05 133.46 7.2 131.39 9.35 127.84 10.6 124.29 11.85 119.74 11.85ZM125.09-8.85L125.09-8.85Q126.84-8.85 128.04-10.75 129.24-12.65 129.24-17.1L129.24-17.1Q129.24-20.15 128.34-21.83 127.44-23.5 126.09-23.5L126.09-23.5Q123.99-23.45 122.94-21.23 121.89-19 121.89-15.35L121.89-15.35Q121.89-12.65 122.64-10.73 123.39-8.8 125.09-8.85ZM115.74 5L115.74 5Q115.74 7.3 117.51 8.65 119.29 10 122.34 10L122.34 10Q126.19 10 128.36 8.7 130.54 7.4 130.54 5.1L130.54 5.1Q130.54 3.65 129.29 2.83 128.04 2 124.84 1.35L124.84 1.35 118.79 0.25 118.79 0.25Q117.39 1.15 116.56 2.33 115.74 3.5 115.74 5ZM145.98 0L140.34 0.4 139.84-0.05 143.63-18.2Q144.09-20.2 142.13-21L142.13-21 141.38-21.3 141.48-22.15 150.34-24.8 150.88-24.3 149.78-18.65Q152.38-21.4 155.09-23.08 157.78-24.75 160.13-24.75L160.13-24.75Q161.74-24.75 162.76-23.78 163.78-22.8 163.78-20.8L163.78-20.8Q163.78-19.7 163.59-18.57 163.38-17.45 163.09-16.25L163.09-16.25 160.53-6Q160.34-5.2 160.21-4.63 160.09-4.05 160.09-3.65L160.09-3.65Q160.09-2.6 160.94-2.6L160.94-2.6Q162.24-2.6 164.24-4.7L164.24-4.7 164.94-4Q163.69-2.15 161.69-0.73 159.69 0.7 157.24 0.7L157.24 0.7Q155.69 0.7 154.78-0.05 153.88-0.8 153.88-2.1L153.88-2.1Q153.88-3.15 154.13-4.23 154.38-5.3 154.73-6.55L154.73-6.55 156.69-14.45Q157.09-15.95 157.34-17.15 157.59-18.35 157.59-19.3L157.59-19.3Q157.59-20.3 157.16-20.68 156.73-21.05 156.03-21.05L156.03-21.05Q154.84-21.05 153.16-20.03 151.48-19 149.38-16.8L149.38-16.8 148.03-10.65Q147.48-8 146.98-5.35 146.48-2.7 145.98 0L145.98 0ZM171.93 0.65L171.93 0.65Q170.28 0.65 169.23-0.4 168.18-1.45 168.18-2.95L168.18-2.95Q168.18-4.8 169.53-6.05 170.88-7.3 172.63-7.3L172.63-7.3Q174.28-7.3 175.31-6.23 176.33-5.15 176.33-3.65L176.33-3.65Q176.33-1.8 175.01-0.58 173.68 0.65 171.93 0.65ZM204.93 0L192.23 0 192.43-1.05 193.13-1.3Q195.13-2.05 195.48-4L195.48-4 198.03-17.55Q198.53-20.2 199.05-23.23 199.58-26.25 200.08-29.05L200.08-29.05Q200.38-31.05 198.53-31.75L198.53-31.75 197.93-32 198.18-33.05 209.63-33.05Q214.63-33.05 218.05-31.28 221.48-29.5 223.23-26.35 224.98-23.2 224.98-19.15L224.98-19.15Q224.98-14.6 223.38-11.05 221.78-7.5 219-5.03 216.23-2.55 212.6-1.28 208.98 0 204.93 0L204.93 0ZM201.58-1.45L201.58-1.45 204.53-1.45Q208.83-1.45 211.85-3.88 214.88-6.3 216.48-10.4 218.08-14.5 218.08-19.55L218.08-19.55Q218.08-25.5 215.68-28.45 213.28-31.4 208.73-31.6L208.73-31.6 207.13-31.6 204.08-15.5Q203.43-12 202.78-8.5 202.13-5 201.58-1.45ZM236.08 0.7L236.08 0.7Q232.38 0.7 230.05-1.7 227.73-4.1 227.73-8.65L227.73-8.65Q227.73-11.8 228.83-14.7 229.93-17.6 231.85-19.88 233.78-22.15 236.38-23.45 238.98-24.75 241.98-24.75L241.98-24.75Q245.08-24.75 246.7-23.35 248.33-21.95 248.33-19.6L248.33-19.6Q248.33-16.75 244.55-13.98 240.78-11.2 233.63-9.65L233.63-9.65Q233.78-6.4 235.18-4.9 236.58-3.4 239.03-3.4L239.03-3.4Q241.23-3.4 242.98-4.55 244.73-5.7 245.93-7.25L245.93-7.25 246.68-6.7Q245.68-4.8 244.1-3.1 242.53-1.4 240.53-0.35 238.53 0.7 236.08 0.7ZM241.48-23.05L241.48-23.05Q240.33-23.05 239.03-22.08 237.73-21.1 236.55-19.43 235.38-17.75 234.58-15.58 233.78-13.4 233.63-10.95L233.63-10.95Q239.23-12.6 241.5-15.05 243.78-17.5 243.78-20.25L243.78-20.25Q243.78-21.7 243.13-22.38 242.48-23.05 241.48-23.05ZM259.92 0.1L256.97 0.4 256.52 0.05Q256.07-5.4 255.6-10.05 255.12-14.7 254.67-19.1L254.67-19.1Q254.52-20.35 254.2-20.68 253.87-21 253.37-21L253.37-21Q252.47-21 250.97-19.25L250.97-19.25 250.27-20.05Q253.52-24.75 256.77-24.75L256.77-24.75Q260.27-24.75 260.62-20.2L260.62-20.2Q260.97-16.65 261.27-12.58 261.57-8.5 261.87-4L261.87-4Q263.77-6.3 265.42-8.5 267.07-10.7 268.72-13.3L268.72-13.3Q269.47-14.55 269.57-15.68 269.67-16.8 269.22-18.15L269.22-18.15 268.47-20.1Q267.82-22 268.7-23.43 269.57-24.85 271.27-24.85L271.27-24.85Q272.92-24.85 273.62-23.9 274.32-22.95 274.32-21.5L274.32-21.5Q274.32-20.55 273.87-19.2 273.42-17.85 271.97-15.4L271.97-15.4Q269.97-11.9 266.87-7.83 263.77-3.75 259.92 0.1L259.92 0.1ZM283.62 0.7L283.62 0.7Q279.92 0.7 277.59-1.7 275.27-4.1 275.27-8.65L275.27-8.65Q275.27-11.8 276.37-14.7 277.47-17.6 279.39-19.88 281.32-22.15 283.92-23.45 286.52-24.75 289.52-24.75L289.52-24.75Q292.62-24.75 294.24-23.35 295.87-21.95 295.87-19.6L295.87-19.6Q295.87-16.75 292.09-13.98 288.32-11.2 281.17-9.65L281.17-9.65Q281.32-6.4 282.72-4.9 284.12-3.4 286.57-3.4L286.57-3.4Q288.77-3.4 290.52-4.55 292.27-5.7 293.47-7.25L293.47-7.25 294.22-6.7Q293.22-4.8 291.64-3.1 290.07-1.4 288.07-0.35 286.07 0.7 283.62 0.7ZM289.02-23.05L289.02-23.05Q287.87-23.05 286.57-22.08 285.27-21.1 284.09-19.43 282.92-17.75 282.12-15.58 281.32-13.4 281.17-10.95L281.17-10.95Q286.77-12.6 289.04-15.05 291.32-17.5 291.32-20.25L291.32-20.25Q291.32-21.7 290.67-22.38 290.02-23.05 289.02-23.05ZM300.47 0.7L300.47 0.7Q298.87 0.7 297.89-0.13 296.92-0.95 296.92-2.5L296.92-2.5Q296.92-3.35 297.14-4.58 297.37-5.8 297.72-7.7L297.72-7.7 300.67-22.05Q301.07-23.85 301.32-25.3 301.57-26.75 301.92-28.6L301.92-28.6Q302.22-30.7 300.22-31.3L300.22-31.3 299.47-31.55 299.62-32.4 308.92-35.1 309.37-34.7 303.32-6.05Q303.12-5.25 303.04-4.65 302.97-4.05 302.97-3.65L302.97-3.65Q302.97-2.55 303.92-2.55L303.92-2.55Q305.07-2.55 307.27-4.7L307.27-4.7 307.97-4Q306.72-2.25 304.87-0.78 303.02 0.7 300.47 0.7ZM319.61 0.7L319.61 0.7Q317.06 0.7 314.96-0.3 312.86-1.3 311.61-3.38 310.36-5.45 310.36-8.6L310.36-8.6Q310.36-11.8 311.44-14.7 312.51-17.6 314.44-19.88 316.36-22.15 318.94-23.45 321.51-24.75 324.46-24.75L324.46-24.75Q328.41-24.75 331.01-22.48 333.61-20.2 333.61-15.45L333.61-15.45Q333.61-12.3 332.54-9.4 331.46-6.5 329.56-4.23 327.66-1.95 325.11-0.63 322.56 0.7 319.61 0.7ZM320.21-0.7L320.21-0.7Q321.81-0.7 323.11-2.08 324.41-3.45 325.36-5.7 326.31-7.95 326.84-10.73 327.36-13.5 327.36-16.25L327.36-16.25Q327.36-20.2 326.44-21.75 325.51-23.3 324.06-23.3L324.06-23.3Q322.46-23.3 321.09-21.98 319.71-20.65 318.71-18.4 317.71-16.15 317.16-13.43 316.61-10.7 316.61-7.9L316.61-7.9Q316.61-3.85 317.64-2.27 318.66-0.7 320.21-0.7ZM344.11 0.7L344.11 0.7Q342.76 0.7 341.56 0.15L341.56 0.15Q341.06 2.6 340.69 4.53 340.31 6.45 340.01 8.2L340.01 8.2Q339.71 9.9 341.36 10.35L341.36 10.35 342.61 10.65 342.41 11.55 330.71 11.55 330.91 10.65 331.81 10.45Q333.61 9.9 333.96 8.2L333.96 8.2 339.51-18.25Q339.86-20.25 338.01-21L338.01-21 337.21-21.3 337.31-22.2 346.11-24.8 346.71-24.35 345.66-19.15Q347.66-21.65 350.21-23.2 352.76-24.75 354.91-24.75L354.91-24.75Q356.96-24.75 358.44-23.3 359.91-21.85 359.91-18.1L359.91-18.1Q359.91-15.4 358.99-12.7 358.06-10 356.46-7.58 354.86-5.15 352.81-3.3 350.76-1.45 348.54-0.38 346.31 0.7 344.11 0.7ZM350.81-20.9L350.81-20.9Q349.66-20.9 348.21-19.98 346.76-19.05 345.26-17.4L345.26-17.4 342.46-3.55Q344.26-1.85 346.16-1.85L346.16-1.85Q349.21-1.85 351.26-5.1L351.26-5.1Q352.01-6.3 352.64-8.08 353.26-9.85 353.64-11.9 354.01-13.95 354.01-15.85L354.01-15.85Q354.01-18.3 353.21-19.6 352.41-20.9 350.81-20.9ZM365.56 0.65L365.56 0.65Q363.91 0.65 362.86-0.4 361.81-1.45 361.81-2.95L361.81-2.95Q361.81-4.8 363.16-6.05 364.51-7.3 366.26-7.3L366.26-7.3Q367.91-7.3 368.94-6.23 369.96-5.15 369.96-3.65L369.96-3.65Q369.96-1.8 368.63-0.58 367.31 0.65 365.56 0.65ZM398.56 0L385.86 0 386.06-1.05 386.76-1.3Q388.76-2.05 389.11-4L389.11-4 391.66-17.55Q392.16-20.2 392.68-23.23 393.21-26.25 393.71-29.05L393.71-29.05Q394.01-31.05 392.16-31.75L392.16-31.75 391.56-32 391.81-33.05 403.26-33.05Q408.26-33.05 411.68-31.28 415.11-29.5 416.86-26.35 418.61-23.2 418.61-19.15L418.61-19.15Q418.61-14.6 417.01-11.05 415.41-7.5 412.63-5.03 409.86-2.55 406.23-1.28 402.61 0 398.56 0L398.56 0ZM395.21-1.45L395.21-1.45 398.16-1.45Q402.46-1.45 405.48-3.88 408.51-6.3 410.11-10.4 411.71-14.5 411.71-19.55L411.71-19.55Q411.71-25.5 409.31-28.45 406.91-31.4 402.36-31.6L402.36-31.6 400.76-31.6 397.71-15.5Q397.06-12 396.41-8.5 395.76-5 395.21-1.45ZM429.7 0.7L429.7 0.7Q426 0.7 423.68-1.7 421.35-4.1 421.35-8.65L421.35-8.65Q421.35-11.8 422.45-14.7 423.55-17.6 425.48-19.88 427.4-22.15 430-23.45 432.6-24.75 435.6-24.75L435.6-24.75Q438.7-24.75 440.33-23.35 441.95-21.95 441.95-19.6L441.95-19.6Q441.95-16.75 438.18-13.98 434.4-11.2 427.25-9.65L427.25-9.65Q427.4-6.4 428.8-4.9 430.2-3.4 432.65-3.4L432.65-3.4Q434.85-3.4 436.6-4.55 438.35-5.7 439.55-7.25L439.55-7.25 440.3-6.7Q439.3-4.8 437.73-3.1 436.15-1.4 434.15-0.35 432.15 0.7 429.7 0.7ZM435.1-23.05L435.1-23.05Q433.95-23.05 432.65-22.08 431.35-21.1 430.18-19.43 429-17.75 428.2-15.58 427.4-13.4 427.25-10.95L427.25-10.95Q432.85-12.6 435.13-15.05 437.4-17.5 437.4-20.25L437.4-20.25Q437.4-21.7 436.75-22.38 436.1-23.05 435.1-23.05ZM446.55 0.7L446.55 0.7Q444.95 0.7 443.98-0.13 443-0.95 443-2.5L443-2.5Q443-3.35 443.23-4.58 443.45-5.8 443.8-7.7L443.8-7.7 446.75-22.05Q447.15-23.85 447.4-25.3 447.65-26.75 448-28.6L448-28.6Q448.3-30.7 446.3-31.3L446.3-31.3 445.55-31.55 445.7-32.4 455-35.1 455.45-34.7 449.4-6.05Q449.2-5.25 449.13-4.65 449.05-4.05 449.05-3.65L449.05-3.65Q449.05-2.55 450-2.55L450-2.55Q451.15-2.55 453.35-4.7L453.35-4.7 454.05-4Q452.8-2.25 450.95-0.78 449.1 0.7 446.55 0.7ZM464.9-27.7L464.9-27.7Q463.5-27.7 462.5-28.6 461.5-29.5 461.5-31.05L461.5-31.05Q461.5-32.7 462.7-33.8 463.9-34.9 465.4-34.9L465.4-34.9Q466.85-34.9 467.8-33.98 468.75-33.05 468.75-31.6L468.75-31.6Q468.75-30 467.57-28.85 466.4-27.7 464.9-27.7ZM460.3 0.7L460.3 0.7Q458.8 0.7 457.82-0.08 456.85-0.85 456.85-2.35L456.85-2.35Q456.85-3.2 457.05-4.4 457.25-5.6 457.5-6.85L457.5-6.85 459.85-18.15Q460.3-20.25 458.3-21L458.3-21 457.6-21.3 457.7-22.2 466.7-24.8 467.2-24.3 463.4-6.45Q463.2-5.6 463.1-4.98 463-4.35 463-3.8L463-3.8Q463-2.7 464-2.7L464-2.7Q465.2-2.7 467.15-4.6L467.15-4.6 467.8-3.95Q466.55-2.1 464.67-0.7 462.8 0.7 460.3 0.7ZM479.94 0.1L477 0.4 476.55 0.05Q476.09-5.4 475.62-10.05 475.14-14.7 474.69-19.1L474.69-19.1Q474.55-20.35 474.22-20.68 473.89-21 473.39-21L473.39-21Q472.5-21 471-19.25L471-19.25 470.3-20.05Q473.55-24.75 476.8-24.75L476.8-24.75Q480.3-24.75 480.64-20.2L480.64-20.2Q481-16.65 481.3-12.58 481.59-8.5 481.89-4L481.89-4Q483.8-6.3 485.44-8.5 487.09-10.7 488.75-13.3L488.75-13.3Q489.5-14.55 489.59-15.68 489.69-16.8 489.25-18.15L489.25-18.15 488.5-20.1Q487.84-22 488.72-23.43 489.59-24.85 491.3-24.85L491.3-24.85Q492.94-24.85 493.64-23.9 494.34-22.95 494.34-21.5L494.34-21.5Q494.34-20.55 493.89-19.2 493.44-17.85 492-15.4L492-15.4Q490-11.9 486.89-7.83 483.8-3.75 479.94 0.1L479.94 0.1ZM503.64 0.7L503.64 0.7Q499.94 0.7 497.62-1.7 495.29-4.1 495.29-8.65L495.29-8.65Q495.29-11.8 496.39-14.7 497.49-17.6 499.42-19.88 501.34-22.15 503.94-23.45 506.54-24.75 509.54-24.75L509.54-24.75Q512.64-24.75 514.27-23.35 515.89-21.95 515.89-19.6L515.89-19.6Q515.89-16.75 512.12-13.98 508.34-11.2 501.19-9.65L501.19-9.65Q501.34-6.4 502.74-4.9 504.14-3.4 506.59-3.4L506.59-3.4Q508.79-3.4 510.54-4.55 512.29-5.7 513.49-7.25L513.49-7.25 514.24-6.7Q513.24-4.8 511.67-3.1 510.09-1.4 508.09-0.35 506.09 0.7 503.64 0.7ZM509.04-23.05L509.04-23.05Q507.89-23.05 506.59-22.08 505.29-21.1 504.12-19.43 502.94-17.75 502.14-15.58 501.34-13.4 501.19-10.95L501.19-10.95Q506.79-12.6 509.07-15.05 511.34-17.5 511.34-20.25L511.34-20.25Q511.34-21.7 510.69-22.38 510.04-23.05 509.04-23.05ZM523.19 0L517.54 0.4 517.04-0.05 520.79-18.15Q521.04-19.35 520.64-20.03 520.24-20.7 519.24-21.05L519.24-21.05 518.54-21.3 518.69-22.15 526.99-24.8 527.59-24.25 526.24-16.4Q527.34-18.7 528.74-20.6 530.14-22.5 531.66-23.63 533.19-24.75 534.69-24.75L534.69-24.75Q536.19-24.75 537.11-23.95 538.04-23.15 538.04-21.85L538.04-21.85Q538.04-20.45 537.24-19.6 536.44-18.75 535.09-18.75L535.09-18.75Q532.99-18.75 531.19-20.85L531.19-20.85Q529.39-19.4 528.09-17.28 526.79-15.15 525.64-12.7L525.64-12.7 525.24-10.65Q524.74-8 524.21-5.35 523.69-2.7 523.19 0L523.19 0ZM538.99 0.65L538.99 0.65Q537.34 0.65 536.29-0.4 535.24-1.45 535.24-2.95L535.24-2.95Q535.24-4.8 536.59-6.05 537.94-7.3 539.69-7.3L539.69-7.3Q541.34-7.3 542.36-6.23 543.39-5.15 543.39-3.65L543.39-3.65Q543.39-1.8 542.06-0.58 540.74 0.65 538.99 0.65ZM555.53-36.45L555.53-36.45Q556.83-36.45 557.51-35.63 558.18-34.8 558.18-33.5L558.18-33.5Q558.18-32.4 557.46-30.28 556.73-28.15 555.68-25.55 554.63-22.95 553.63-20.35L553.63-20.35 552.33-20.35 552.18-24.15Q552.13-25.35 552.11-27.03 552.08-28.7 552.11-30.33 552.13-31.95 552.23-32.95L552.23-32.95Q552.43-34.8 553.31-35.63 554.18-36.45 555.53-36.45ZM564.93-36.45L564.93-36.45Q566.23-36.45 566.91-35.63 567.58-34.8 567.58-33.5L567.58-33.5Q567.58-32.4 566.86-30.28 566.13-28.15 565.08-25.55 564.03-22.95 563.03-20.35L563.03-20.35 561.73-20.35 561.58-24.15Q561.53-25.35 561.51-27.03 561.48-28.7 561.51-30.33 561.53-31.95 561.63-32.95L561.63-32.95Q561.83-34.8 562.71-35.63 563.58-36.45 564.93-36.45Z" opacity="1" transform="matrix(1,0,0,1,0,0)" fill="#0080ff" class="undefined-text-1" data-fill-palette-color="secondary" id="text-1"></path></svg></g></svg></g></svg></g></svg></g><g transform="matrix(1,0,0,1,87.55778100112917,0)"><svg viewBox="0 0 70.53795479774159 52.33461162413086" height="52.33461162413086" width="70.53795479774159"><g><svg xmlns="http://www.w3.org/2000/svg" xmlns:xlink="http://www.w3.org/1999/xlink" version="1.1" x="0" y="0" viewBox="5.000000476837158 14.199996948242188 93 69" style="enable-background:new 0 0 100 100;" xml:space="preserve" height="52.33461162413086" width="70.53795479774159" class="icon-icon-0" data-fill-palette-color="accent" id="icon-0"><g fill="#0023ff" data-fill-palette-color="accent"><path d="M31.4 47.3l9.5 9.5 33.9-33.9c0.6 0.3 1.3 0.5 2 0.5 2.5 0 4.6-2.1 4.6-4.6 0-2.5-2.1-4.6-4.6-4.6s-4.6 2.1-4.6 4.6c0 0.7 0.2 1.4 0.5 2L40.9 52.6l-5.3-5.3 23.7-23.7c0.6 0.3 1.3 0.5 2 0.5 2.5 0 4.6-2.1 4.6-4.6S63.8 15 61.3 15s-4.6 2.1-4.6 4.6c0 0.7 0.2 1.4 0.5 2L31.4 47.3zM76.7 17.3c0.9 0 1.6 0.7 1.6 1.6 0 0.9-0.7 1.6-1.6 1.6-0.9 0-1.6-0.7-1.6-1.6C75.2 18 75.9 17.3 76.7 17.3zM61.3 18c0.9 0 1.6 0.7 1.6 1.6s-0.7 1.6-1.6 1.6c-0.9 0-1.6-0.7-1.6-1.6S60.4 18 61.3 18z" fill="#0023ff" data-fill-palette-color="accent"></path><path d="M47.6 26l-9.5-9.5L12.3 42.3c-0.6-0.3-1.3-0.5-2-0.5-2.5 0-4.6 2.1-4.6 4.6 0 2.5 2.1 4.6 4.6 4.6 2.5 0 4.6-2.1 4.6-4.6 0-0.7-0.2-1.4-0.5-2l23.7-23.7 5.3 5.3L11.6 57.8c-0.6-0.3-1.3-0.5-2-0.5-2.5 0-4.6 2.1-4.6 4.6s2.1 4.6 4.6 4.6 4.6-2.1 4.6-4.6c0-0.7-0.2-1.4-0.5-2L47.6 26zM10.3 48c-0.9 0-1.6-0.7-1.6-1.6 0-0.9 0.7-1.6 1.6-1.6 0.9 0 1.6 0.7 1.6 1.6C11.9 47.3 11.2 48 10.3 48zM9.6 63.5c-0.9 0-1.6-0.7-1.6-1.6 0-0.9 0.7-1.6 1.6-1.6s1.6 0.7 1.6 1.6C11.2 62.8 10.5 63.5 9.6 63.5z" fill="#0023ff" data-fill-palette-color="accent"></path><path d="M71.7 50.1l-9.5-9.5L28.3 74.5c-0.6-0.3-1.3-0.5-2-0.5-2.5 0-4.6 2.1-4.6 4.6s2.1 4.6 4.6 4.6c2.5 0 4.6-2.1 4.6-4.6 0-0.7-0.2-1.4-0.5-2l31.8-31.8 5.3 5.3L43.8 73.8c-0.6-0.3-1.3-0.5-2-0.5-2.5 0-4.6 2.1-4.6 4.6s2.1 4.6 4.6 4.6c2.5 0 4.6-2.1 4.6-4.6 0-0.7-0.2-1.4-0.5-2L71.7 50.1zM26.3 80.1c-0.9 0-1.6-0.7-1.6-1.6s0.7-1.6 1.6-1.6c0.9 0 1.6 0.7 1.6 1.6S27.2 80.1 26.3 80.1zM41.8 79.4c-0.9 0-1.6-0.7-1.6-1.6 0-0.9 0.7-1.6 1.6-1.6 0.9 0 1.6 0.7 1.6 1.6C43.3 78.7 42.6 79.4 41.8 79.4z" fill="#0023ff" data-fill-palette-color="accent"></path><path d="M92.7 46.4c-2.5 0-4.6 2.1-4.6 4.6 0 0.7 0.2 1.4 0.5 2L64.9 76.6l-5.3-5.3 31.8-31.8c0.6 0.3 1.3 0.5 2 0.5 2.5 0 4.6-2.1 4.6-4.6s-2.1-4.6-4.6-4.6-4.6 2.1-4.6 4.6c0 0.7 0.2 1.4 0.5 2L55.4 71.4l9.5 9.5 25.8-25.8c0.6 0.3 1.3 0.5 2 0.5 2.5 0 4.6-2.1 4.6-4.6S95.2 46.4 92.7 46.4zM93.4 33.9c0.9 0 1.6 0.7 1.6 1.6s-0.7 1.6-1.6 1.6c-0.9 0-1.6-0.7-1.6-1.6S92.6 33.9 93.4 33.9zM92.7 52.5c-0.9 0-1.6-0.7-1.6-1.6 0-0.9 0.7-1.6 1.6-1.6 0.9 0 1.6 0.7 1.6 1.6C94.3 51.8 93.6 52.5 92.7 52.5z" fill="#0023ff" data-fill-palette-color="accent"></path></g></svg></g></svg></g><g></g></svg></g></svg></g><g><path d="M95.384 56.849A122.216 122.216 0 0 1 300.136 56.849L297.418 56.849A119.497 119.497 0 0 0 98.102 56.849L95.384 56.849M95.384 190.351A122.216 122.216 0 0 0 300.136 190.351L297.418 190.351A119.497 119.497 0 0 1 98.102 190.351L95.384 190.351" fill="#0c1dbc" stroke="transparent" data-fill-palette-color="tertiary"></path></g></svg></g><defs></defs></svg><rect width="395.52" height="247.2" fill="none" stroke="none" visibility="hidden"></rect></g></svg></g></svg>